<?xml version="1.0" encoding="UTF-8"?>
<svg width="128px" height="128px" viewBox="0 0 128 128" version="1.1" xmlns="http://www.w3.org/2000/svg">
  <circle cx="64" cy="64" r="60" fill="#9945FF" />
  <circle cx="64" cy="64" r="50" fill="#1C1C1C" />
  
  <!-- Magnet -->
  <path d="M45,40 L45,60 C45,70 55,80 65,80 C75,80 85,70 85,60 L85,40 Z" fill="#FF5555" stroke="#FFFFFF" stroke-width="2" />
  <path d="M45,40 L45,50 L85,50 L85,40 Z" fill="#DDDDDD" stroke="#FFFFFF" stroke-width="2" />
  
  <!-- Metal balls being attracted -->
  <circle cx="40" cy="90" r="6" fill="#DDDDDD" stroke="#FFFFFF" stroke-width="1" />
  <circle cx="55" cy="95" r="6" fill="#DDDDDD" stroke="#FFFFFF" stroke-width="1" />
  <circle cx="70" cy="95" r="6" fill="#DDDDDD" stroke="#FFFFFF" stroke-width="1" />
  <circle cx="85" cy="90" r="6" fill="#DDDDDD" stroke="#FFFFFF" stroke-width="1" />
  
  <!-- Attraction lines -->
  <line x1="45" y1="70" x2="40" y2="84" stroke="#14F195" stroke-width="2" stroke-dasharray="3,3" />
  <line x1="55" y1="80" x2="55" y2="89" stroke="#14F195" stroke-width="2" stroke-dasharray="3,3" />
  <line x1="70" y1="80" x2="70" y2="89" stroke="#14F195" stroke-width="2" stroke-dasharray="3,3" />
  <line x1="80" y1="70" x2="85" y2="84" stroke="#14F195" stroke-width="2" stroke-dasharray="3,3" />
</svg>