<?xml version="1.0" encoding="UTF-8"?>
<svg width="128px" height="128px" viewBox="0 0 128 128" version="1.1" xmlns="http://www.w3.org/2000/svg">
  <circle cx="64" cy="64" r="60" fill="#9945FF" />
  <circle cx="64" cy="64" r="50" fill="#1C1C1C" />
  
  <!-- Calendar -->
  <rect x="30" y="38" width="68" height="52" rx="4" ry="4" fill="white" />
  
  <!-- Calendar header -->
  <rect x="30" y="38" width="68" height="10" rx="4" ry="4" fill="#14F195" />
  
  <!-- Days -->
  <text x="38" y="56" font-family="Arial" font-size="8" fill="#666666">M</text>
  <text x="48" y="56" font-family="Arial" font-size="8" fill="#666666">T</text>
  <text x="58" y="56" font-family="Arial" font-size="8" fill="#666666">W</text>
  <text x="68" y="56" font-family="Arial" font-size="8" fill="#666666">T</text>
  <text x="78" y="56" font-family="Arial" font-size="8" fill="#666666">F</text>
  <text x="88" y="56" font-family="Arial" font-size="8" fill="#666666">S</text>
  
  <!-- Date grid -->
  <rect x="36" y="60" width="8" height="8" rx="1" ry="1" fill="#14F195" />
  <rect x="46" y="60" width="8" height="8" rx="1" ry="1" fill="#14F195" />
  <rect x="56" y="60" width="8" height="8" rx="1" ry="1" fill="#14F195" />
  <rect x="66" y="60" width="8" height="8" rx="1" ry="1" fill="#14F195" />
  <rect x="76" y="60" width="8" height="8" rx="1" ry="1" fill="#14F195" />
  <rect x="86" y="60" width="8" height="8" rx="1" ry="1" fill="#14F195" />
  
  <rect x="36" y="70" width="8" height="8" rx="1" ry="1" fill="#14F195" />
  <rect x="46" y="70" width="8" height="8" rx="1" ry="1" fill="#14F195" />
  <rect x="56" y="70" width="8" height="8" rx="1" ry="1" fill="#14F195" />
  <rect x="66" y="70" width="8" height="8" rx="1" ry="1" fill="#14F195" />
  <rect x="76" y="70" width="8" height="8" rx="1" ry="1" fill="#14F195" />
  <rect x="86" y="70" width="8" height="8" rx="1" ry="1" fill="#14F195" />
  
  <rect x="36" y="80" width="8" height="8" rx="1" ry="1" fill="#14F195" />
  <rect x="46" y="80" width="8" height="8" rx="1" ry="1" fill="#14F195" />
  <rect x="56" y="80" width="8" height="8" rx="1" ry="1" fill="#14F195" />
  
  <!-- Trophy -->
  <path d="M90,95 C90,85 100,85 100,80 L100,75 L80,75 L80,80 C80,85 90,85 90,95 Z" fill="#FFD700" />
  <rect x="87" y="95" width="6" height="5" fill="#FFD700" />
  <rect x="85" y="100" width="10" height="2" fill="#FFD700" />
</svg>