<?xml version="1.0" encoding="UTF-8"?>
<svg width="128px" height="128px" viewBox="0 0 128 128" version="1.1" xmlns="http://www.w3.org/2000/svg">
  <circle cx="64" cy="64" r="60" fill="#9945FF" />
  <circle cx="64" cy="64" r="50" fill="#1C1C1C" />
  
  <!-- Crown -->
  <path d="M30,55 L45,65 L64,40 L83,65 L98,55 L90,85 L38,85 Z" fill="#FFC700" stroke="#1C1C1C" stroke-width="2" />
  
  <!-- Calendar with checkmarks -->
  <rect x="44" y="65" width="40" height="35" fill="white" stroke="#1C1C1C" stroke-width="2" />
  <line x1="44" y1="75" x2="84" y2="75" stroke="#1C1C1C" stroke-width="2" />
  <line x1="54" y1="65" x2="54" y2="100" stroke="#1C1C1C" stroke-width="2" />
  <line x1="64" y1="65" x2="64" y2="100" stroke="#1C1C1C" stroke-width="2" />
  <line x1="74" y1="65" x2="74" y2="100" stroke="#1C1C1C" stroke-width="2" />
  
  <!-- Checkmarks -->
  <path d="M49,82 L52,85 L59,77" stroke="#14F195" stroke-width="2" fill="none" />
  <path d="M59,82 L62,85 L69,77" stroke="#14F195" stroke-width="2" fill="none" />
  <path d="M69,82 L72,85 L79,77" stroke="#14F195" stroke-width="2" fill="none" />
</svg>