<?xml version="1.0" encoding="UTF-8"?>
<svg width="128px" height="128px" viewBox="0 0 128 128" version="1.1" xmlns="http://www.w3.org/2000/svg">
  <circle cx="64" cy="64" r="60" fill="#9945FF" />
  <circle cx="64" cy="64" r="50" fill="#1C1C1C" />
  
  <!-- Badges collection -->
  <circle cx="44" cy="48" r="12" fill="#FFFFFF" stroke="#14F195" stroke-width="2" />
  <circle cx="84" cy="48" r="12" fill="#FFFFFF" stroke="#14F195" stroke-width="2" />
  <circle cx="44" cy="88" r="12" fill="#FFFFFF" stroke="#14F195" stroke-width="2" />
  <circle cx="84" cy="88" r="12" fill="#FFFFFF" stroke="#14F195" stroke-width="2" />
  <circle cx="64" cy="68" r="15" fill="#FFFFFF" stroke="#14F195" stroke-width="3" />
  
  <!-- Stars in badges -->
  <path d="M44,43 L47,47 L52,48 L48,51 L49,56 L44,54 L39,56 L40,51 L36,48 L41,47 Z" fill="#FFD700" />
  <path d="M84,43 L87,47 L92,48 L88,51 L89,56 L84,54 L79,56 L80,51 L76,48 L81,47 Z" fill="#FFD700" />
  <path d="M44,83 L47,87 L52,88 L48,91 L49,96 L44,94 L39,96 L40,91 L36,88 L41,87 Z" fill="#FFD700" />
  <path d="M84,83 L87,87 L92,88 L88,91 L89,96 L84,94 L79,96 L80,91 L76,88 L81,87 Z" fill="#FFD700" />
  
  <!-- Big star in center -->
  <path d="M64,59 L68,66 L76,68 L70,73 L71,81 L64,77 L57,81 L58,73 L52,68 L60,66 Z" fill="#FFD700" />
  
  <!-- Enthusiasm burst -->
  <circle cx="64" cy="68" r="20" stroke="#9945FF" stroke-width="1" stroke-dasharray="2,2" fill="none" />
  <circle cx="64" cy="68" r="25" stroke="#9945FF" stroke-width="1" stroke-dasharray="2,2" fill="none" />
  <circle cx="64" cy="68" r="30" stroke="#9945FF" stroke-width="1" stroke-dasharray="2,2" fill="none" />
</svg>