<?xml version="1.0" encoding="UTF-8"?>
<svg width="128px" height="128px" viewBox="0 0 128 128" version="1.1" xmlns="http://www.w3.org/2000/svg">
  <circle cx="64" cy="64" r="60" fill="#14F195" />
  <circle cx="64" cy="64" r="50" fill="#1C1C1C" />
  
  <!-- Ticket -->
  <path d="M30,50 L98,50 L98,78 L30,78 Z" fill="#FFFFFF" />
  <path d="M30,50 L98,50 L98,58 L30,58 Z" fill="#9945FF" />
  
  <!-- Number 1 -->
  <path d="M61,58 L67,58 L67,78 L61,78 Z" fill="#14F195" />
  <path d="M61,58 L55,64 L61,64 Z" fill="#14F195" />
  
  <!-- Checkmark -->
  <path d="M78,64 L84,70 L94,60" stroke="#14F195" stroke-width="4" fill="none" />
  
  <!-- Perforation -->
  <line x1="40" y1="58" x2="40" y2="78" stroke="#DDDDDD" stroke-width="1" stroke-dasharray="2,2" />
  <line x1="50" y1="58" x2="50" y2="78" stroke="#DDDDDD" stroke-width="1" stroke-dasharray="2,2" />
  <line x1="78" y1="58" x2="78" y2="78" stroke="#DDDDDD" stroke-width="1" stroke-dasharray="2,2" />
  <line x1="88" y1="58" x2="88" y2="78" stroke="#DDDDDD" stroke-width="1" stroke-dasharray="2,2" />
</svg>